<?xml version="1.0" standalone="no"?>
<!DOCTYPE svg PUBLIC "-//W3C//DTD SVG 20010904//EN"
 "http://www.w3.org/TR/2001/REC-SVG-20010904/DTD/svg10.dtd">
<svg version="1.0" xmlns="http://www.w3.org/2000/svg"
 width="434.000000pt" height="116.000000pt" viewBox="0 0 434.000000 116.000000"
 preserveAspectRatio="xMidYMid meet">

<g transform="translate(0.000000,116.000000) scale(0.100000,-0.100000)"
fill="#000000" stroke="none">
<path d="M3419 1133 c-5 -15 -20 -95 -33 -177 -14 -89 -35 -180 -51 -221 -15
-38 -37 -121 -51 -184 -14 -69 -34 -131 -50 -159 l-27 -45 42 7 41 6 -15 -37
c-17 -40 -26 -53 -64 -97 l-26 -28 45 6 c25 4 57 9 73 12 15 3 27 3 27 0 0 -3
-11 -31 -25 -61 l-25 -56 33 6 c17 4 48 15 68 25 l37 18 32 -33 c35 -36 98
-65 195 -90 114 -29 108 -34 145 116 43 170 51 181 156 190 44 4 109 8 145 8
70 1 71 2 157 84 27 26 81 132 84 166 3 29 12 25 -186 71 -129 31 -140 35
-155 63 -34 62 -60 83 -171 132 l-111 50 -46 87 c-96 186 -136 212 -114 73 7
-42 10 -79 8 -82 -3 -3 -15 15 -27 39 -34 67 -74 127 -88 133 -7 3 -17 -7 -23
-22z m79 -178 c24 -54 29 -78 23 -104 -8 -43 -20 -47 -54 -21 -23 18 -27 29
-27 69 0 68 11 144 20 134 4 -4 21 -39 38 -78z"/>
<path d="M2 613 l3 -328 45 0 45 0 3 238 c1 130 6 237 10 237 4 -1 45 -56 92
-123 80 -115 87 -122 122 -125 36 -3 37 -2 125 122 48 69 91 126 96 126 4 0 7
-108 7 -241 l0 -240 48 3 47 3 3 328 2 328 -57 -3 -57 -3 -101 -142 c-55 -78
-103 -145 -107 -148 -3 -4 -54 61 -113 144 l-107 151 -54 0 -54 0 2 -327z"/>
<path d="M1395 921 c-78 -35 -124 -118 -111 -203 15 -97 71 -141 203 -159 112
-15 146 -46 129 -115 -14 -55 -116 -81 -192 -49 -26 11 -40 25 -51 55 -16 39
-17 40 -65 40 l-50 0 7 -32 c24 -111 109 -178 224 -178 138 0 231 80 231 197
0 103 -60 155 -208 179 -71 12 -91 20 -111 41 -18 21 -22 34 -17 62 16 106
189 111 227 7 12 -34 15 -36 61 -36 53 0 54 3 37 61 -16 52 -64 108 -113 130
-54 24 -148 24 -201 0z"/>
<path d="M1817 922 c-34 -37 -15 -82 33 -82 49 0 68 51 32 83 -24 22 -45 21
-65 -1z"/>
<path d="M2380 835 c0 -58 -2 -105 -5 -105 -2 0 -20 11 -40 24 -116 79 -291
14 -351 -129 -22 -53 -18 -141 10 -200 61 -132 229 -185 341 -109 20 13 38 24
40 24 2 0 5 -12 7 -27 3 -26 6 -28 48 -28 l45 0 3 328 2 327 -50 0 -50 0 0
-105z m-77 -171 c33 -18 63 -63 72 -111 8 -42 -26 -117 -66 -146 -42 -30 -110
-34 -156 -8 -52 30 -75 65 -81 121 -12 125 114 204 231 144z"/>
<path d="M747 773 c-11 -10 -8 -267 4 -321 12 -59 44 -105 96 -140 49 -34 140
-42 197 -18 21 9 40 16 41 16 2 0 -1 -16 -5 -35 -10 -42 -24 -61 -61 -81 -49
-25 -97 -16 -145 28 -22 19 -22 19 -63 -2 -47 -24 -46 -37 11 -85 88 -75 198
-74 287 1 67 56 71 77 71 377 l0 268 -47 -3 -48 -3 -5 -168 -5 -169 -33 -29
c-62 -55 -155 -32 -188 47 -10 23 -14 78 -14 179 l0 145 -43 0 c-24 0 -47 -3
-50 -7z"/>
<path d="M1804 767 c-2 -7 -3 -118 -2 -247 l3 -235 45 0 45 0 3 248 2 247 -45
0 c-28 0 -48 -5 -51 -13z"/>
<path d="M2702 765 c-162 -50 -224 -251 -119 -386 48 -63 116 -94 202 -94 78
1 118 17 173 69 37 34 66 82 54 89 -4 3 -24 10 -45 15 -37 10 -40 9 -69 -23
-34 -40 -91 -60 -140 -51 -42 8 -98 42 -98 59 0 9 61 30 188 63 183 48 187 50
183 74 -9 69 -69 140 -146 176 -56 27 -117 30 -183 9z m141 -89 c32 -13 74
-52 66 -61 -4 -4 -264 -75 -275 -75 -2 0 -4 10 -4 22 0 34 41 86 85 108 47 23
83 25 128 6z"/>
</g>
</svg>
